Poster:

Info:

Info:

Format : AVI
Format/Info : Audio Video Interleave
File size : 704 MiB
Duration : 2h 25mn
Overall bit rate : 679 Kbps

Video
ID : 0
Format : MPEG-4 Visual
Format profile : Advanced Simple@L5
Format settings, BVOP : 1
Format settings, QPel : No
Format settings, GMC : No warppoints
Format settings, Matrix : Default (H.263)
Muxing mode : Packed bitstream
Codec ID : XVID
Codec ID/Hint : XviD
Duration : 2h 25mn
Bit rate : 607 Kbps
Width : 640 pixels
Height : 272 pixels
Display aspect ratio : 2.35:1
Frame rate : 23.976 fps
Color space : YUV
Chroma subsampling : 4:2:0
Bit depth : 8 bits
Scan type : Progressive
Compression mode : Lossy
Bits/(Pixel*Frame) : 0.145
Stream size : 629 MiB (89%)
Writing library : XviD 1.2.1 (UTC 2008-12-04)

Audio
ID : 1
Format : AC-3
Format/Info : Audio Coding 3
Mode extension : CM (complete main)
Format settings, Endianness : Big
Codec ID : 2000
Duration : 2h 24mn
Bit rate mode : Constant
Bit rate : 64.0 Kbps
Channel(s) : 2 channels
Channel positions : Front: L R
Sampling rate : 48.0 KHz
Bit depth : 16 bits
Compression mode : Lossy
Stream size : 66.4 MiB (9%)
Alignment : Aligned on interleaves
Interleave, duration : 64 ms (1.53 video frames)
Interleave, preload duration : 192 ms
Title : VTS_01_1 T80 3_2ch 448Kbps DELAY 0ms_new


Screens:
 
http://www.pixentral.com/pics/1XVXPkKRZoYqlzvbVQMtKwT5aujjFW.jpg 
http://www.pixentral.com/pics/1iNuChq7iiNZoClrQ6I0a2QtVUd.jpg 
http://www.pixentral.com/pics/11Qy0YnnjGP6u5d0LBYzFKCm7n25.jpg 
http://www.pixentral.com/pics/10D9TBiDs7C5AV5qrj1ucoi1ZM4Vex.jpg 
http://www.pixentral.com/pics/1EScf0J6ggFbzBj5jo9Uzmqw7Muxd0.jpg 
http://www.pixentral.com/pics/1CFJaRGCFtlysShmPqS5QDiSrZhOM1.jpg 
http://www.pixentral.com/pics/1EJdaunNduHEMXEavrej8VaNMXnG1.jpg
